<svg width="500" height="500" viewBox="0 0 500 500" fill="none" xmlns="http://www.w3.org/2000/svg">
<path d="M176.436 213.911C176.436 227.504 167.672 238.322 157.085 238.322C146.498 238.322 137.734 227.504 137.734 213.911C137.734 200.317 146.498 189.5 157.085 189.5C167.672 189.5 176.436 200.317 176.436 213.911Z" fill="black" stroke="black"/>
<path d="M249.048 214.074C250.794 222.505 251.474 241.072 249.048 251.109C243.807 272.789 237.111 285.785 233.327 296.275C230 305.5 244 312 259 312" stroke="black" stroke-width="33" stroke-linecap="round"/>
<path d="M123.222 137.785C134.83 132.183 158.939 123.5 183.942 137.785" stroke="black" stroke-width="33" stroke-linecap="round"/>
<path d="M333.163 357C316.547 384.292 279.69 392.881 251.418 385.486" stroke="black" stroke-width="33" stroke-linecap="round"/>
<path d="M377.72 181C366.112 186.602 342.002 195.285 317 181" stroke="black" stroke-width="33" stroke-linecap="round"/>
<path d="M361 215C352.57 212.514 341.442 212.159 332 215" stroke="black" stroke-width="29" stroke-linecap="round"/>
</svg>
