<svg width="500" height="500" viewBox="0 0 500 500" fill="none" xmlns="http://www.w3.org/2000/svg">
<path d="M176.436 213.911C176.436 227.504 167.672 238.322 157.085 238.322C146.498 238.322 137.734 227.504 137.734 213.911C137.734 200.317 146.498 189.5 157.085 189.5C167.672 189.5 176.436 200.317 176.436 213.911Z" fill="black" stroke="black"/>
<path d="M363.266 213.911C363.266 227.504 354.502 238.322 343.915 238.322C333.328 238.322 324.564 227.504 324.564 213.911C324.564 200.317 333.328 189.5 343.915 189.5C354.502 189.5 363.266 200.317 363.266 213.911Z" fill="black" stroke="black"/>
<path d="M249.048 214.074C250.794 222.505 251.474 241.072 249.048 251.109C243.807 272.789 237.111 285.785 233.327 296.275C230 305.5 244 312 259 312" stroke="black" stroke-width="33" stroke-linecap="round"/>
<path d="M123.222 137.785C134.83 132.183 158.939 123.5 183.942 137.785" stroke="black" stroke-width="33" stroke-linecap="round"/>
<path d="M304.603 366.652C281.201 388.408 243.396 386.667 218.194 371.874" stroke="black" stroke-width="33" stroke-linecap="round"/>
<path d="M317.059 137.785C328.667 132.183 352.776 123.5 377.779 137.785" stroke="black" stroke-width="33" stroke-linecap="round"/>
</svg>
